# xmcd
#
# Track frame offsets: 
#        150
#        20879
#        45005
#        86687
#        109308
#        127909
#        162323
#        186557
#        211902
#        237051
#
# Disc length: 3540 seconds
#
# Revision: 0
# Processed by: cddbd v1.5.2PL0 Copyright (c) Steve Scherf et al.
# Submitted via: ExactAudioCopy v0.99pb3
#
DISCID=800dd20a
DTITLE=Mud Morganfield - Fall Waters Fall
DYEAR=2008
DGENRE=Blues
TTITLE0=What's That You Got
TTITLE1=Mean Old Woman
TTITLE2=Fall Waters Fall
TTITLE3=Easy Lover
TTITLE4=Sugar Baby
TTITLE5=Satisfied
TTITLE6=I Love What I Love
TTITLE7=Cigarettes
TTITLE8=You're Gonna Miss Me
TTITLE9=Same Old Thing
EXTD=
EXTT0=
EXTT1=
EXTT2=
EXTT3=
EXTT4=
EXTT5=
EXTT6=
EXTT7=
EXTT8=
EXTT9=
PLAYORDER=
